<?xml version="1.0" encoding="utf-8"?>
<svg width="26px" height="26px" viewBox="0 0 26 26" version="1.1" xmlns:xlink="http://www.w3.org/1999/xlink" xmlns="http://www.w3.org/2000/svg">
  <defs>
    <path d="M26 0L26 0L26 26L0 26L0 0L26 0Z" id="path_1" />
    <clipPath id="clip_1">
      <use xlink:href="#path_1" clip-rule="evenodd" fill-rule="evenodd" />
    </clipPath>
  </defs>
  <g id="Código Do Google">
    <path d="M26 0L26 0L26 26L0 26L0 0L26 0Z" id="Código-Do-Google" fill="none" stroke="none" />
    <path d="M3.16667 2C1.96908 2 1 2.96908 1 4.16667L1 17.1667C1 18.3643 1.96908 19.3333 3.16667 19.3333L9.66667 19.3333L9.66667 20.4167L5.33333 20.4167L2.08333 23.6667L21.5833 23.6667L18.3333 20.4167L14 20.4167L14 19.3333L20.5 19.3333C21.6976 19.3333 22.6667 18.3643 22.6667 17.1667L22.6667 4.16667C22.6667 2.96908 21.6976 2 20.5 2L3.16667 2ZM3.16667 4.16667L20.5 4.16667L20.5 17.1667L3.16667 17.1667L3.16667 4.16667ZM9.39583 6.33333L5.33333 10.3958L9.39583 14.4583L10.75 13.1042L8.04167 10.3958L10.75 7.6875L9.39583 6.33333ZM14.2708 6.33333L12.9167 7.6875L15.625 10.3958L12.9167 13.1042L14.2708 14.4583L18.3333 10.3958L14.2708 6.33333Z" id="Forma" fill="#470054" fill-rule="evenodd" stroke="none" clip-path="url(#clip_1)" />
  </g>
</svg>