<?xml version="1.0" encoding="UTF-8"?>
<svg version="1.1" viewBox="0 0 2048 512" width="200" height="48" xmlns="http://www.w3.org/2000/svg">
<path transform="translate(0)" d="m0 0h2048v512h-2048z" fill="#FEFEFE"/>
<path transform="translate(717,163)" d="m0 0h17l18 3 15 6 12 7 13 12 9 13 6 12 5 16 2 14v25l-3 18-5 15-8 15-11 13-12 10-16 8-12 4-12 2h-26l-17-4-17-8-12-9-8-8-9-13-7-15-4-16-2-17 1-19 4-20 7-16 7-12 11-13 13-10 14-7 19-5z" fill="#020202"/>
<path transform="translate(337,163)" d="m0 0h16l19 3 15 6 12 7 13 12 8 11 8 16 4 14 2 14v26l-4 21-5 13-7 13-9 11-11 10-14 8-13 5-15 3h-26l-18-4-17-8-13-10-10-11-8-13-5-12-4-15-2-16v-9l4-27 5-14 8-15 8-10 11-11 14-9 13-5 13-3z" fill="#020202"/>
<path transform="translate(1670,163)" d="m0 0h17l18 3 13 5 13 7 13 12 8 10 8 15 5 16 2 12v32l-3 15-4 12-8 16-9 11-9 9-13 8-11 5-15 4-7 1h-25l-18-4-16-8-10-7-9-8-10-14-6-12-5-16-2-14v-22l2-14 4-15 8-16 7-11 13-13 14-9 12-5 16-4z" fill="#020202"/>
<path transform="translate(1255,167)" d="m0 0h36l4 4 13 20 17 26 44 68 5 7v-124l1-1h38v185h-41l-6-7-27-41-16-25-22-33-11-18-2-4-1 128-39 1-1-1v-184z" fill="#020202"/>
<path transform="translate(508,167)" d="m0 0h49l4 9 15 43 19 53 13 37 14 39 1 4h-46l-13-41h-64l-12 38-2 3h-45l11-30 15-42 21-57 17-48z" fill="#020202"/>
<path transform="translate(1111,167)" d="m0 0h48l5 12 34 96 20 56 7 21-42 1-4-2-9-27-4-13h-64l-13 41h-45l1-6 10-27 17-47 20-55 17-47z" fill="#020202"/>
<path transform="translate(971,163)" d="m0 0h15l25 3 12 3 2 2v37l-6-2-11-5-15-3h-24l-10 4-5 4-3 9 2 8 6 7 14 8 25 11 14 9 10 9 6 10 4 11v26l-4 12-7 10-9 8-14 7-16 4-8 1h-30l-22-4-14-5-1-2-1-41 4 1 13 9 14 6 9 2h22l13-4 6-7 1-3v-8l-5-8-9-7-23-11-16-8-9-6-7-6-7-10-4-9-1-4v-23l3-10 6-11 8-8 11-7 12-5 14-3z" fill="#020202"/>
<path transform="translate(1852,163)" d="m0 0h16l25 3 13 4 1 2v36l-6-2-12-5-14-3h-24l-9 3-7 6-2 4v8l3 6 8 7 15 8 18 8 14 8 10 8 6 8 5 10 2 7v23l-4 13-6 9-5 6-11 7-12 5-12 3-8 1h-30l-22-4-14-5-2-5v-39l5 3 10 7 16 7 10 2h20l11-3 6-4 4-8-1-9-6-8-11-7-26-12-12-6-11-9-7-8-6-12-2-10v-10l2-14 7-14 11-11 15-8 14-4z" fill="#020202"/>
<path transform="translate(1438,167)" d="m0 0h145l1 1v34h-53v149l-1 1-40 1-1-1v-99l1-51h-53v-34z" fill="#020202"/>
<path transform="translate(185,167)" d="m0 0h41v120l-2 17-5 16-6 12-9 10-12 8-11 4-9 2-14 1-15-2-10-3-1-1v-39l5 2 8 4 4 1h13l9-3 6-7 4-9 2-16 1-116z" fill="#020202"/>
<path transform="translate(1668,200)" d="m0 0h21l12 5 10 9 7 12 4 13 1 5v33l-4 15-6 11-7 8-10 6-11 3h-16l-10-3-9-6-7-7-6-10-4-11-2-11v-23l3-14 5-12 7-10 5-5 10-6z" fill="#FEFEFE"/>
<path transform="translate(334,200)" d="m0 0h21l11 4 9 7 6 8 6 13 3 14v29l-4 16-7 13-8 8-9 5-10 3h-17l-12-4-10-8-7-10-5-11-3-13v-26l3-14 4-10 7-10 7-7 12-6z" fill="#FEFEFE"/>
<path transform="translate(714,200)" d="m0 0h21l11 4 10 8 7 11 5 13 2 15v19l-2 14-4 11-6 10-7 7-9 5-10 3h-17l-10-3-11-8-8-11-5-11-3-12v-29l4-15 6-12 7-9 11-7z" fill="#FEFEFE"/>
<path transform="translate(562,107)" d="m0 0h17l1 4-3 16-4 10-4 5-9 5-11 1-12-3-17-8-9-1-3 4-3 11-1 1h-14l-3-1v-10l4-15 6-8 6-5 6-2h10l10 3 17 8 7 1 5-3 3-12z" fill="#020202"/>
<path transform="translate(1132,203)" d="m0 0h2l7 25 15 47v3h-45l1-6 10-31 8-25z" fill="#FEFEFE"/>
<path transform="translate(530,203)" d="m0 0 2 1 8 27 14 44v3h-45l1-6 18-56z" fill="#FEFEFE"/>
</svg>
